<?xml version="1.0" standalone="no"?>
<!DOCTYPE svg PUBLIC "-//W3C//DTD SVG 20010904//EN"
 "http://www.w3.org/TR/2001/REC-SVG-20010904/DTD/svg10.dtd">
<svg version="1.0" xmlns="http://www.w3.org/2000/svg"
 width="174.000000pt" height="174.000000pt" viewBox="0 0 174.000000 174.000000"
 preserveAspectRatio="xMidYMid meet">
<metadata>
Created by potrace 1.11, written by Peter Selinger 2001-2013
</metadata>
<g transform="translate(0.000000,174.000000) scale(0.100000,-0.100000)"
fill="#000000" stroke="none">
<path d="M703 1609 c-100 -22 -216 -76 -292 -136 -52 -42 -71 -61 -136 -135
-39 -43 -102 -168 -126 -248 -24 -80 -32 -238 -16 -331 47 -287 290 -531 592
-594 52 -11 208 -14 272 -4 235 34 458 199 559 414 174 367 23 793 -344 975
-44 22 -111 47 -148 56 -101 24 -261 25 -361 3z"/>
</g>
</svg>
